<svg xmlns="http://www.w3.org/2000/svg"
     viewBox="40 40 320 320"
 fill-rule="evenodd" stroke-linejoin="round" stroke-miterlimit="2" clip-rule="evenodd">

  <path fill="#0a0e24" d="M185.938 56.279c5.278-.574 24.768-.234 30.468.532 74.266 9.986 128.776 69.952 130.338 143.384l.217 10.157 1.485 1.562c7.89 8.298 6.678 22.247-2.222 25.577-2.068.773-2.922.79-40.184.79-20.939 0-38.071.141-38.071.312 0 .172.971 1.27 2.159 2.442 2.557 2.521 9.082 12.059 11.515 16.831l1.721 3.374 2.098.469c1.477.331 3.319 1.297 6.227 3.267l4.129 2.797 3.127.142c3.749.17 5.41-.277 8.538-2.299 6.87-4.44 16.736-4.348 16.736.157 0 1.738-1.438 2.303-5.979 2.35l-3.991.041-5.07 2.539-5.069 2.539h-4.497c-5.038 0-5.888-.299-11.208-3.94-3.076-2.107-3.16-2.064-2.135 1.083.644 1.978 1.621 7.338 1.621 8.895 0 .175.994.442 2.21.594 1.568.196 3.414.909 6.348 2.454 6.52 3.432 9.495 3.086 13.357-1.555 3.598-4.323 5.573-5.315 11.421-5.737 4.24-.306 5.311-.685 6.981-2.471 2.01-2.148 5.162-.621 4.464 2.162-.791 3.152-4.53 5.213-10.375 5.721-4.636.402-4.872.517-8.826 4.294-4.332 4.137-6.016 4.906-10.737 4.906h-3.711l-4.519-2.246c-5.236-2.602-6.613-2.834-6.613-1.113 0 13.484-8.008 25.651-19.524 29.666l-1.179.411v8.241c0 9.662-.021 9.714-4.142 10.543a817.599 817.599 0 0 0-8.358 1.777c-50.165 10.887-57.177 12.017-67.849 10.931-21.762-2.214-37.341-8.238-55.003-21.268l-1.563-1.153-3.515.621c-20.423 3.608-35.304-6.904-35.345-24.966l-.007-3.01-1.367-.213c-.752-.117-2.026-.309-2.832-.427-16.571-2.422-25.78-17.522-21.741-35.65.302-1.356.55-2.612.55-2.79 0-.179-1.07-.513-2.376-.743-6.09-1.073-11.027-5.38-9.516-8.302 1.063-2.057 2.414-2.006 4.779.179 2.52 2.328 9.456 3.896 9.456 2.138 0-.878 3.555-7.449 5.678-10.497 1.174-1.685 2.135-3.152 2.135-3.259 0-.107-5.318-.248-11.817-.313l-11.816-.119-1.761-1.036c-7.437-4.372-7.655-17.246-.414-24.486l1.855-1.855.278-9.469c2.241-76.438 57.728-136.714 133.441-144.961Z"/>

  <path fill="#0a0e24" d="M340.82 248.493c.43-.216.817-.405.861-.42.506-.168 2.141 1.101 2.316 1.799 1.054 4.198-4.545 7.924-12.395 8.247-7.218.297-9.13-.495-8.128-3.369.511-1.465.666-1.508 6.604-1.836 5.544-.306 8.1-1.082 9.177-2.787.431-.682 1.136-1.418 1.565-1.634Zm-34.684 51.382c3.798-2.702 7.443.887 3.923 3.863-4.06 3.432-11.384 4.103-16.96 1.555-5.425-2.481-3.5-6.884 2.153-4.923 3.704 1.284 8.703 1.057 10.884-.495Zm-13.627 11.64c3.602-2.52 6.938.166 4.327 3.484-4.09 5.2-21.379 4.783-19.71-.475.611-1.926 1.5-2.196 5.501-1.672 4.954.648 7.547.297 9.882-1.337Zm-21.511 10.512c.511-.511 1.017-.574 2.611-.324 1.087.171 3.332.323 4.989.339 4.27.04 5.787 1.836 3.491 4.133-1.124 1.123-1.304 1.168-4.618 1.16-6.149-.015-9.236-2.546-6.473-5.308Z"/>
  <g fill="#fbf4d0">
    <path d="M237.541 124.154c4.279 3.905 5.319 4.752 5.832 4.752 1.119 0 11.839 5.634 16.364 8.599 24.529 16.079 42.094 43.495 45.794 71.479.548 4.145.691 18.218.217 21.387l-.306 2.051h1.753c2.321 0 2.378-.304 2.366-12.5-.044-42.541-28.966-82.675-69.657-96.658-5.254-1.805-5.299-1.789-2.363.89m-58.849-.665c-2.776 1.348-1.351 4.579 1.535 3.482 1.523-.579 2.128-2.138 1.22-3.141-.771-.852-1.515-.944-2.755-.341m-1.124 7.24c-.137.359-.08.821.127 1.029.576.575 1.602.007 1.602-.886 0-.98-1.364-1.092-1.729-.143m-9.339 2.735c-.794.793.069 2.864 1.193 2.864.845 0 1.491-1.815.9-2.527-.511-.616-1.633-.797-2.093-.337m-5.07.382c-.553.553-.24 1.31.542 1.31.546 0 .768-.212.683-.651-.139-.719-.806-1.078-1.225-.659m-15.023 6.084c-1.549.401-3.214 2.529-3.214 4.107 0 3.652 5.178 4.341 7.778 1.035 2.24-2.847-.688-6.146-4.564-5.142m-39.803 42.327c-.13.339.015.868.323 1.176.742.742 2.147-.17 1.771-1.15-.314-.819-1.783-.837-2.094-.026m-5.718 6.458c-.388.226-.876.86-1.085 1.408-.871 2.292 2.135 3.868 3.939 2.065 2.025-2.026-.357-4.925-2.854-3.473m7.818 1.373c-.484.484-.298 1.986.309 2.49.835.693 1.833-.215 1.68-1.529-.115-.992-1.357-1.593-1.989-.961m-31.111 42.249c-.071 0-.191.015-.356.039-1.374.191-6.179-.034-11.896-.007-13.043.059-13.15.04-14.633-2.599-1.108-1.971-.247-8.076-.006-8.774 1.097-3.191 3.857-5.848 7.335-7.063 6.165-2.155 12.865 1.219 15.14 7.623.769 2.166.653 2.121 2.883 1.109 4.332-1.966 6.124-1.002 5.882 3.164-.154 2.665-1.838 5.991-2.951 6.405-.264.098-1.081.104-1.398.103Zm236.721-.142c-.592-.114-.551-.357-.645-.655-1.858-5.856 6.631-11.861 11.868-8.395 2.107 1.394 2.338 1.359 2.632-.391.813-4.841 3.352-8.104 6.748-8.673 5.747-.963 10.62 4.079 10.62 10.99 0 1.946.323 2.357-.618 4.31-1.358 2.818-1.436 2.834-13.761 2.943-7.714.069-16.007.075-16.383-.023a5.164 5.164 0 0 0-.461-.106Zm-80.496-6.702c.631.62 3.143 1.572 3.42 1.295.204-.203-1.678-1.188-3.029-1.585-.865-.254-.91-.22-.391.29"/>
    <path d="M58.841 227.074c.373-.143.467-.011.301.422-.325.846-1.72.207-1.72-.788 0-.166.197-.105.438.136s.683.345.981.23m6.677 1.442c-.065.86-.674 1.095-.674.26 0-.466.346-1.042.627-1.042.058 0 .079.352.047.782m270.81.438c0 .693.097.749.586.343.338-.28.586-.318.586-.09 0 .77-1.159.845-1.557.101-.497-.93-.499-1.183-.005-1.183.214 0 .39.373.39.829m4.981.612c-.376.098-.684.342-.684.541 0 .495.676.457.993-.056.142-.229.513-.319.825-.199.316.121.461.047.328-.169-.249-.403-.341-.41-1.462-.117m-268.392 1.098c0 .322-.224.586-.498.586-.599 0-1.012-.574-.664-.922.46-.46 1.162-.256 1.162.336"/>
  </g>
  <path fill="#0a0e24" d="M256.378 244.283c5.884 2.458 5.517 12.794-.564 15.896-3.164 1.614-3.47 1.011-3.47-6.833 0-3.344-.132-6.079-.293-6.078-.94.008-2.925 7.304-2.848 10.468.086 3.539-.52 5.155-1.933 5.155-1.135 0-1.566-1.197-1.573-4.369-.006-2.383-.238-3.41-1.396-6.178l-1.389-3.321.21 6.554c.305 9.525-1.423 11.589-4.242 5.068-.997-2.308-1.205-2.091-1.054 1.103.166 3.513-1.495 5.635-2.959 3.779-.876-1.11-.956-15.845-.09-16.71 1.15-1.15 2.178-.425 3.526 2.488l1.114 2.406.018-2.662c.026-3.767 1.267-5.378 2.76-3.58.435.526.558.503 1.046-.195.935-1.335 1.962-.977 2.989 1.044l.932 1.834.829-1.931c.456-1.063.98-2.196 1.166-2.518.474-.824 1.967-.971 2.254-.223.335.875.933.759.933-.18 0-1.366 1.995-1.869 4.034-1.017m-23.516 5.19c.954 1.147.999 15.736.052 16.905-1.323 1.634-3.321-.056-4.468-3.78-.776-2.521-1.102-2.01-1.102 1.727 0 4.191-1.771 6.573-3.071 4.132-.834-1.565-.713-16.899.138-17.524 1.441-1.058 2.218-.516 3.981 2.778l1.672 3.125.007-3.39c.009-4.181 1.204-5.882 2.791-3.973m-10.384 2.997c.695 2.767-.009 15.315-.925 16.478-1.339 1.7-2.811 2.531-4.489 2.534-3.502.006-4.173-1.349-4.173-8.424 0-4.922-.051-5.299-.646-4.806-.355.295-1.177.712-1.827.927l-1.183.391.098 6.836c.104 7.282-.146 8.744-1.572 9.196-1.919.609-2.292-.73-2.292-8.219v-6.748l-1.999.053c-3.148.085-3.842-2.661-.975-3.859 2.693-1.125 8.857-2.315 9.598-1.852.579.362.771.275 1.13-.513.536-1.176 2.191-1.291 2.779-.193.225.421.404 3.256.404 6.398 0 6.282.353 7.338 1.927 5.763.749-.749.808-1.26.808-7.083 0-3.579.173-6.6.404-7.031.607-1.134 2.637-1.029 2.933.152"/>
  <g fill="#0a8ed7">
    <path d="M181.447 123.83c.908 1.003.303 2.562-1.22 3.141-2.886 1.097-4.311-2.134-1.535-3.482 1.24-.603 1.984-.511 2.755.341m-2.15 7.042c0 .893-1.026 1.461-1.602.886-.561-.561.014-1.68.862-1.68.483 0 .74.275.74.794m-8.975 2.929c.591.712-.055 2.527-.9 2.527-1.124 0-1.987-2.071-1.193-2.864.46-.46 1.582-.279 2.093.337m-5.938.704c.085.439-.137.651-.683.651-.446 0-.81-.234-.81-.521 0-1.196 1.265-1.306 1.493-.13m-11.855 6.411c2.524 2.525-.633 6.759-4.639 6.222-2.925-.392-3.881-3.094-1.977-5.59 1.654-2.169 4.78-2.467 6.616-.632m94.477 31.74c0 1.612.069 2.271.154 1.465.084-.806.084-2.124 0-2.93-.085-.805-.154-.146-.154 1.465m-136.579 9.627c.376.98-1.029 1.892-1.771 1.15-.308-.308-.453-.837-.323-1.176.311-.811 1.78-.793 2.094.026m-4.854 6.682c.774.86.828 4.271.086 5.421-1.069 1.655-3.554 1.499-4.508-.285-.631-1.179-.176-2.172.674-1.469.587.485.597.455.107-.331-.382-.613-.625-.727-.838-.391-.486.765-.357.088.269-1.411.91-2.176 2.959-2.923 4.21-1.534m14.74.488c.537.42 1.24.767 1.562.771.322.004.01-.343-.693-.772-1.631-.995-2.142-.994-.869.001m-7.891 1.596c.153 1.314-.845 2.222-1.68 1.529-.607-.504-.793-2.006-.309-2.49.632-.632 1.874-.031 1.989.961m121.262 11.295c0 .752.081 1.059.179.683a3.215 3.215 0 0 0 0-1.367c-.098-.376-.179-.068-.179.684m38.061 40.324c.441.488 1.69 2.166 2.774 3.729 1.084 1.563 2.042 2.631 2.128 2.372.27-.81 4.362-1.046 18.738-1.08 14.852-.035 15.943.082 15.943 1.705 0 1.959-.791 2.058-17.626 2.217l-15.478.147 1.145 1.953c.629 1.074 1.778 3.206 2.551 4.737 1.4 2.771 1.416 2.786 3.523 3.257 1.499.336 3.322 1.29 6.246 3.271l4.129 2.797 3.127.142c3.749.17 5.41-.277 8.538-2.299 5.314-3.435 12.927-4.407 15.523-1.983 1.499 1.401 1.604 2.889.265 3.767-.774.507-.91.852-.743 1.882.311 1.92-.437 2.276-5.449 2.594-4.183.265-4.545.36-7.899 2.062-7.443 3.776-14.325 3.498-20.619-.833l-1.735-1.193.293 1.641c.162.903.411 2.634.555 3.846l.262 2.204 2.188.274c1.541.192 3.411.917 6.325 2.451 6.52 3.432 9.495 3.086 13.357-1.555 3.598-4.323 5.573-5.315 11.421-5.737 4.226-.305 5.312-.687 6.957-2.445 1.105-1.181 2.919-1.488 3.769-.638.365.365.469.228.469-.616 0-1.497 1.92-3.368 3.455-3.368 3.334 0 4.837-4.156 2.014-5.566-2.217-1.107-28.57-1.027-31.836.097-4.102 1.411-8.201.985-7.945-.825.353-2.491 5.233-3.466 17.499-3.497 6.157-.015 9.65-.156 9.124-.368-1.293-.521-1.75-1.65-1.25-3.086.501-1.436.673-1.483 6.595-1.81 5.541-.306 8.1-1.082 9.177-2.786 1.39-2.196 3.361-2.445 4.724-.597.351.476.568.341 1.268-.793 1.516-2.452 1.504-3.537-.059-5.242l-1.378-1.504-36.434-.105-36.433-.106.802.887m-218.034-.036c-2.285 1.268-2.377 3.767-.256 6.926.292.434.514.379 1.186-.293 1.224-1.223 2.214-1.021 4.262.871 3.738 3.453 9.783 3.789 9.842.548.003-.162-1.055-.293-2.351-.293-3.919 0-6.406-1.599-4.268-2.744.452-.242 2.434-.393 4.575-.35 3.261.065 3.833-.019 4.183-.621.223-.383.957-1.538 1.631-2.567l1.227-1.872-9.625-.019c-6.358-.013-9.89.128-10.406.414m26.073 5.513c-10.987 22.354-5.555 34.592 5.469 40.899 1.021.584 1.77 1.146 1.666 1.251-.104.104.959.417 2.363.696 3.025.601 9.14-3.755 7.452-4.715-10.61-6.03-15.02-27.905-9.815-45.809.02-.069-6.269 5.475-7.135 7.678Z"/>
    <path d="M335.731 247.795c2.125 1.554-.437 2.596-6.385 2.596-4.864 0-6.281-.419-5.785-1.711.543-1.415 10.459-2.136 12.17-.885m-68.286 10.31c-.14 3.384-.266 8.965-.279 12.403-.018 4.745-.196 6.908-.74 8.984-.394 1.504-.501 2.846-.535 3.036-.135.75.141 2.131-1.072 3.383-1.663 1.715-5.503 9.782-7.126 10.607-2.158 1.097-2.938 2.887-3.765 6.105-1.801 7.007 10.808 11.294 18.802 3.732 3.517-3.328 6.136-17.938 5.522-24.313-.519-5.39-1.445-12.114-4.198-18.503-1.08-2.508-5.98-11.586-6.241-11.586-.062 0-.227 2.769-.368 6.152m-153.649-.533c.29.756-.803 2.194-1.667 2.194-.911 0-1.309-1.004-.786-1.982.465-.869 2.145-1.014 2.453-.212m119.532 4.147c0 1.396.071 1.968.158 1.269.086-.698.086-1.841 0-2.539-.087-.698-.158-.127-.158 1.27m4.293-.196c.002 1.29.075 1.77.162 1.068.087-.702.085-1.757-.004-2.344-.089-.587-.16-.013-.158 1.276m-88.886 4.769c.486.093 1.189.09 1.563-.008.373-.098-.025-.174-.884-.17-.859.004-1.165.084-.679.178"/>
    <path d="M272.656 281.865c0 .363-.266.563-.651.488-.98-.19-1.115-1.103-.163-1.103.48 0 .814.252.814.615m-1.64 2.979c.257.258.468.787.468 1.177s.215 1.052.477 1.471c1.18 1.891-2.621 4.04-4.578 2.588-.651-.482-.704-.706-.318-1.339.255-.418.376-1.095.269-1.504-.457-1.749 2.441-3.634 3.682-2.393m-171.883 6.367c-3.506 10.39 4.541 24.255 16.101 27.742 1.182.357 2.523.826 2.98 1.044.936.446 7.492-2.747 6.968-2.891-7.711-2.107-24.731-20.461-24.89-28.187m148.627 4.831c0 .752.08 1.06.178.684a3.188 3.188 0 0 0 0-1.368c-.098-.376-.178-.068-.178.684m-113.958 5.156c-1.302.408-3.732.771-5.469.817-3.021.079-3.141.118-3.606 1.183-.264.606-.018 2.343 0 2.752.876 20.242 50.561 34.576 50.677 34.665.837.64 1.281.707 2.011.195.735-.514.664-.6-1.301-1.595-18.595-9.411-30.292-20.455-38.148-36.019-1.5-2.97-1.328-2.887-4.164-1.998m45.117 40.547c0 .49.415.49 1.172 0 .474-.306.418-.38-.293-.385-.483-.003-.879.17-.879.385"/>
  </g>
  <path fill="#0a8ed7" d="m127.427 255.273.279 1.954-1.763-1.954c-5.64-6.245-6.452-15.488-5.791-23.428.21-2.527 1.5-4.845 2.146-7.296.079-.299.289-1.081.02-.929-1.647.928-2.947 4.533-4.497 3.453-1.487-1.036 1.805-3.144 2.61-4.767.149-.3.557-1.079.238-.977-2.825.904-4.137 2.843-5.276 5.459-4.247 9.753-5.802 18.355-1.06 28.309 6.091 12.784 19.985 17.85 33.356 17.708 1.821-.019 6.255 1.407 5.267 3.21-1.462 2.666-5.099 8.146-14.038 12.787-1.172.608-10.109 3.756-15.938 2.576-6.234-1.261-13.469-4.325-15.356-5.214-4.596-2.165-8.929-7.451-12.331-11.973-2.583-3.433-3.707-6.495-3.749-6.623-6.511-19.674 1.259-40.888 16.08-55.818 0 0-7.544.282-11.14 2.327-.366.208.721-11.159 3.736-23.555 1.516-6.229 5.101-17.973 9.155-23.139 25.092-31.976 73.641-64.145 113.898-40.948 7.626 4.394 11.011 8.543 16.413 15.589 2.1 2.739 4.327 9.435 3.499 8.648-2.274-2.162-8.621-3.609-13.243-4.101-8.431-.897-23.768.221-37.615 5.122-5.994 2.122-11.324 5.065-16.984 7.963-.878.45-2.843 1.929-1.857 1.911 1.582-.028 17.471-7.596 24.525-9.614 13.842-3.961 20.158-4.778 34.375-3.27 4.481.475 9.807 2.991 13.381 5.503.735.517 3.122 2.603 1.13 1.456-.309-.178-4.353-2.438-7.603-3.525-1.792-.6-9.535-2.215-17.656-2.179-6.558.029-13.347 1.524-17.566 2.476-13.764 3.108-23.584 8.642-36.884 14.991-9.229 4.406-15.743 7.129-22.67 14.904-2.189 2.456-6.897 12.184-8.257 15.634-7.224 18.327-11.657 37.538-8.834 57.33Zm5.689-89.643c-6.827-3.011-15.998 1.193-18.09 8.469-1.656 5.76-.726 13.769 5.522 16.423 5.962 2.533 14.114-.932 17.366-6.244 3.805-6.215 2.305-15.516-4.798-18.648Z"/>
  <path fill="#fbf4d0" d="M62.012 247.688c-2.019 1.175.567 2.703 4.576 2.703 2.498 0 4.238-1.427 3.452-2.832-.247-.442-7.242-.329-8.028.129"/>
  <clipPath id="a">
    <path d="M62.012 247.688c-2.019 1.175.567 2.703 4.576 2.703 2.498 0 4.238-1.427 3.452-2.832-.247-.442-7.242-.329-8.028.129"/>
  </clipPath>
  <g clip-path="url(#a)">
    <path fill="#dcdcdc" d="M66.461 250.391c-1.946-.016-3.544-.393-4.42-.91-.893-.548-1.006-1.25.085-1.834.019-.01.04-.02.064-.03.607-.18 2.223-.294 3.833-.327.223 0 .45.002.678.007.74.015 1.342.022 1.834.017.84.041 1.436.122 1.505.245.113.202.174.405.188.604-.255.475-.494.934-.711 1.362-.651.52-1.698.866-2.929.866h-.127Z"/>
  </g>
  <path fill="#fbf4d0" d="M324.698 247.672c-3.351 1.346-1.003 2.719 4.648 2.719 5.948 0 8.51-1.042 6.385-2.596-.843-.616-9.562-.714-11.033-.123"/>
  <path fill="#dcdcdc" d="M335.731 247.795c2.125 1.554-.437 2.596-6.385 2.596-2.911 0-4.946-.364-5.776-.902-.137-.22-.132-.488-.009-.809.251-.653 2.501-1.159 5.018-1.391 2.994-.063 6.623.12 7.152.506Z"/>
  <path fill="#fbf4d0" d="M279.028 248.013c-1.115.135-2.16.38-2.323.543-.312.311.865 2.607 1.586 3.096.813.551 30.78-.142 31.963-.739 1.444-.729 1.485-2.339.072-2.876-1.095-.416-27.903-.437-31.298-.024"/>
  <clipPath id="b">
    <path d="M279.028 248.013c-1.115.135-2.16.38-2.323.543-.312.311.865 2.607 1.586 3.096.813.551 30.78-.142 31.963-.739 1.444-.729 1.485-2.339.072-2.876-1.095-.416-27.903-.437-31.298-.024"/>
  </clipPath>
  <g clip-path="url(#b)">
    <path fill="#dcdcdc" d="M276.654 248.751c.221-.541 2.202-.821 7.925-.956 7.385-.136 19.603-.1 24.074.098 1.508.139 2.179.365 2.468.727.05.067.09.137.122.21.066.164.085.351.085.564 0 .113-.003.219-.011.32-.112.432-.435.851-.965 1.147-.15.053-.322.102-.52.148-1.254.185-4.947.374-9.386.525-1.898.029-4.127.052-6.744.077l-14.81.141c-.335-.028-.543-.061-.601-.1-.633-.43-1.618-2.253-1.637-2.901Z"/>
  </g>
  <path fill="#fbf4d0" d="M255.886 251.953c.001 3.751.049 4.018.559 3.125.749-1.31.757-5.484.013-6.468-.516-.682-.574-.347-.572 3.343m11.692-2.252c0 1.393.408 2.457 2.004 5.223 12.086 20.959 11.293 47.191-1.629 53.873-.676.35-1.137.727-1.025.84.113.112 1.292-.376 2.621-1.084 15.353-8.183 16.117-34.073 1.653-56.014-3.121-4.734-3.624-5.128-3.624-2.838m18.212 18.919c1.91 7.69 13.514 10.328 23.39 5.318 3.354-1.702 3.716-1.797 7.899-2.062 4.754-.301 5.689-.692 5.499-2.296-.313-2.653-6.507-2.145-12.979 1.063-8.633 4.279-13.649 4.077-20.626-.83-3.552-2.499-3.502-2.48-3.183-1.193"/>
  <clipPath id="c">
    <path d="M285.79 268.62c1.91 7.69 13.514 10.328 23.39 5.318 3.354-1.702 3.716-1.797 7.899-2.062 4.754-.301 5.689-.692 5.499-2.296-.313-2.653-6.507-2.145-12.979 1.063-8.633 4.279-13.649 4.077-20.626-.83-3.552-2.499-3.502-2.48-3.183-1.193"/>
  </clipPath>
  <g clip-path="url(#c)">
    <path fill="#dcdcdc" d="M295.223 276.809c-2.777-.412-4.081-1.928-6.662-3.704l-.16-.11c-1.387-1.295-2.349-2.968-2.719-4.833.001-.304.148-.381.487-.251 3.831 2.098 6.456 5.058 11.095 5.155 1.385.028 2.771-.112 4.148-.264 1.703-.188 3.394-.471 5.084-.755 3.882-1.564 5.438-3.001 10.274-3.909l1.432-.536c.984-.01 1.795.374 2.504.309 2.08.454 5.467 4.401 3.168 4.891-1.143.244-10.067-1.083-11.055-.434-4.487 2.947-11.707 5.068-17.596 4.441Z"/>
  </g>
  <path fill="#fbf4d0" d="M166.955 277.283c.153.248.092.451-.135.451-.576 0-.519 1.065.075 1.407.268.155.362.142.209-.028-.154-.17-.11-.627.098-1.016.259-.482.235-.794-.074-.985-.28-.174-.346-.108-.173.171m104.236 4.455c.246.739 1.465.845 1.465.127 0-.363-.334-.615-.814-.615-.477 0-.746.202-.651.488m-6.101 2.362c-.709 1.858-3.136 5.358-6.372 9.188-4.27 5.055-4.064 6.249.332 1.927 2.994-2.944 5.041-6.277 6.371-10.377.822-2.53.569-3.094-.331-.738m2.907 1.304c-.97 1.233-1.014 1.836-.196 2.654 1.278 1.278 3.683.185 3.683-1.674 0-2.15-2.101-2.741-3.487-.98M98.074 301.207c-.177 9.062 7.278 17.392 16.574 18.52 1.075.131 3.677.455 3.553.255-.123-.199-14.146-3.701-18.41-15.538l-1.689-4.639-.028 1.402m60.008 9.944c.333.333.504.705.382.828-.225.225-1.433-.794-1.433-1.209 0-.395.431-.239 1.051.381m10.277 4.315c0 .623.349.688 1.108.207.396-.251.326-.381-.293-.543-.541-.141-.815-.028-.815.336m-1.556 4.358c.017.856.763 1.425.769.586.003-.483-.17-.879-.384-.879-.215 0-.388.132-.385.293"/>
  <path fill="#f05634" d="M195.605 55.758c1.343.076 3.541.076 4.883 0 1.343-.076.244-.139-2.441-.139-2.686 0-3.784.063-2.442.139"/>
  <path fill="url(#d)" d="M314.98 222.76c-.452-63.296-51.979-114.543-115.38-114.543-62.719 0-113.817 50.15-115.348 112.503l-1.251-.059c-2.347-.109-2.796-.252-3.329-1.054-3.681-5.535-9.231-8.383-15.694-8.054l-3.668.187.226-9.617c1.177-50.011 31.294-96.477 77.814-120.055 16.91-8.571 33.551-13.126 54.492-14.913 29.378-2.509 66.147 9.232 93.611 29.89 33.257 25.016 54.35 66.505 54.589 107.376l.042 7.227-2.539.219c-4.585.395-8.171 2.695-10.946 7.02l-1.245 1.94h-2.627c-2.028 0-3.066.223-4.549.975a80.795 80.795 0 0 1-1.96.977l-2.238-.019Z"/>
  <path fill="#0a0e24" d="M202.166 71.662c.954.954.959.999.959 8.736 0 8.876-.283 9.836-2.897 9.836-2.557 0-2.751-.645-2.893-9.599l-.127-7.957.988-.987c1.25-1.251 2.738-1.261 3.97-.029m37.164 20.203c1.252 1.176 1.164 1.839-.951 7.13-2.541 6.358-4.433 7.601-6.58 4.323-.81-1.236 1.248-7.4 4.009-12.009.375-.626 2.647-.267 3.522.556m-77.931.36c1.016.544 4.617 8.117 4.617 9.71 0 2.464-3.213 3.783-4.485 1.842-1.118-1.707-3.718-8.21-3.718-9.301 0-1.949 1.91-3.148 3.586-2.251"/>
  <path fill="#f05634" d="M300.195 96.094c.839.859 1.614 1.562 1.721 1.562.108 0-.491-.703-1.33-1.562-.839-.86-1.614-1.563-1.721-1.563-.108 0 .491.703 1.33 1.563"/>
  <path fill="#0a0e24" d="M181.402 95.818c1.715 1.254 2.55 8.579 1.034 9.06-2.31.733-4.994-7.892-2.846-9.144.891-.519.994-.514 1.812.084m39.873 7.444c1.506 1.101.022 4.916-1.7 4.369-1.494-.474-.87-4.897.691-4.897.158 0 .612.238 1.009.528m-80.19 2.109c2.866 3.089 4.63 7.209 3.581 8.368-1.695 1.873-7.166-3.705-7.166-7.306 0-2.137 2.029-2.738 3.585-1.062m105.19-.309c.783.865.576 2.472-.468 3.629-1.34 1.488-3.059.08-2.458-2.015.692-2.411 1.7-2.968 2.926-1.614m14.631.178c1.068 1.137.942 1.701-1.207 5.405-3.147 5.422-6.117 2.854-3.26-2.819 1.836-3.647 2.895-4.26 4.467-2.586m-105.058 2.632c.877 2.039.462 3.857-.877 3.841-1.987-.025-3.417-4.475-1.801-5.607 1.174-.822 1.719-.462 2.678 1.766m-24.402 5.843c2.245 3.049 2.243 4.644-.006 4.644-1.39 0-4.096-3.36-4.096-5.087 0-2.735 1.915-2.529 4.102.443m164.678-1.245c1.874 1.874 1.598 2.523-2.959 6.956-7.619 7.414-9.634 8.475-11.527 6.068-1.255-1.596-.801-3.036 1.694-5.377 9.996-9.376 10.664-9.775 12.792-7.647m-23.858 2.764c1.029 1.03 1.007 1.154-.566 3.215-2.352 3.08-5.329 2.592-3.682-.604 1.629-3.162 2.909-3.949 4.248-2.611m-169.604 6.811c1.116.953 3.436 2.723 5.154 3.934 4.144 2.92 4.95 4.692 3.053 6.711-1.653 1.76-2.457 1.45-8.988-3.464-5.055-3.802-5.694-4.681-4.978-6.848.841-2.549 3.016-2.674 5.759-.333m19.374 1.032c1.22 1.45 1.276 2.343.21 3.308-1.643 1.487-4.606-1.597-3.36-3.497.878-1.341 1.914-1.279 3.15.189"/>
  <path fill="url(#e)" d="M242.331 128.881c9.36 10.665 13.515 23.887 10.511 33.448-.754 2.4-.805 2.958-.394 4.297 2.455 7.986-1.4 29.47-8.181 45.59-1.878 4.467-1.878 5.01.007 5.593 1.825.566 21.587 9.638 22.21 10.197.399.358.711 1.319.781 2.408l.118 1.813 19.018.101 19.019.101.312-1.859c.486-2.885.351-17.449-.199-21.586-3.725-28.022-21.266-55.4-45.796-71.479-4.585-3.004-15.25-8.599-16.394-8.599-.29 0-1.055-.483-1.701-1.074-.645-.591-.335-.119.689 1.049"/>
  <path fill="#0a0e24" d="M293.359 131.641c1.6 1.599-1.878 6.64-4.582 6.64-2.82 0-2.476-2.646.698-5.371 2.694-2.313 2.805-2.349 3.884-1.269m-189.033 11.737c2.622 1.683 3.042 3.592.907 4.128-1.256.315-5.233-2.224-5.233-3.341 0-2.103 1.772-2.426 4.326-.787m197.271.436c.663 1.238.038 2.182-2.273 3.433-4.195 2.273-6.224-.328-2.322-2.976 2.684-1.821 3.805-1.933 4.595-.457m-211.701 8.609c5.842 2.568 6.276 2.901 6.276 4.819 0 3.332-1.684 3.574-7.157 1.029a466.161 466.161 0 0 0-5.509-2.528c-2.326-1.028-2.501-4.123-.296-5.242 1.124-.571.804-.663 6.686 1.922m228.731-1.574c2.271 2.133 1.083 3.748-4.869 6.617-6.44 3.104-8.69 3.051-8.674-.202.009-1.851.328-2.116 5.715-4.75 5.54-2.71 6.498-2.914 7.828-1.665"/>
  <path fill="#f05634" d="M219.824 155.755c.913.082 2.407.082 3.321 0 .913-.082.166-.15-1.661-.15-1.826 0-2.573.068-1.66.15"/>
  <path fill="#0a0e24" d="M88.977 172.718c2.13 1.057 2.618 2.418 1.295 3.615-1.426 1.291-7.069-.725-7.069-2.525 0-2.565 2.028-2.948 5.774-1.09m228.132-.374c1.381 1.381-.344 3.499-3.306 4.059-3.645.689-4.083-2.428-.563-4.008 1.353-.607 3.288-.633 3.869-.051M86.182 184.957c2.034 1.333.847 3.994-1.605 3.596-3.177-.515-4.615-1.915-3.708-3.61.641-1.198 3.475-1.19 5.313.014m234.834-.113c.614.614.601 2.456-.02 2.942-1.427 1.114-4.786 1.316-5.463.328-.261-.381-.431-2.559-.201-2.573.054-.003.801-.259 1.66-.569 1.933-.696 3.408-.743 4.024-.128m-243.868 8.225c1.761.918 1.93 3.307.323 4.571-1.096.862-1.071.862-7.895.162-3.463-.355-5.098-2.905-3.126-4.877.901-.901 8.9-.793 10.698.144m256.877-.06c.953.953.79 2.818-.345 3.953-1.176 1.176-9.093 1.454-10.189.357-2.153-2.153-.733-4.458 2.942-4.777 5.567-.483 6.712-.413 7.592.467"/>
  <path fill="#f05634" d="M52.455 197.461c.003 1.074.079 1.467.169.873.09-.593.087-1.472-.005-1.953-.093-.48-.166.006-.164 1.08"/>
  <path fill="#0a0e24" d="M82.057 206.654c2.008 1.075.585 3.112-2.174 3.112-2.15 0-2.93-.468-2.93-1.758 0-1.642 3.053-2.451 5.104-1.354m242.722.349c1.802 1.991-2.01 4.205-4.38 2.545-.477-.334-.868-.94-.868-1.345 0-1.79 3.906-2.683 5.248-1.2"/>
  <path fill="#fbf4d0" d="M170.076 232.008c-3.728 4.531-5.173 9.195-4.718 25.028.163 5.693-.432 56.861 2.559 59.024.613.443-1.567 2.92-2.189 2.484-.452-.316-7.416-6.325-7.854-6.821-3.202-3.615-12.126-18.622-12.274-18.622-.169 0-3.205 1.176-3.747 1.652-.869.762 8.287 14.959 12.649 19.613 4.791 5.114 15.388 13.368 17.161 13.368.131 0 .12-2.01-.024-4.466-.145-2.457-.561-49.437-.64-68.257l-.049-24.682-.874 1.679"/>
  <path fill="#f05634" d="M222.559 231.916a5.567 5.567 0 0 0 1.757 0c.484-.093.088-.169-.878-.169-.967 0-1.363.076-.879.169m39.675 2.85c0 1.396.071 1.967.158 1.269.087-.698.087-1.841 0-2.539-.087-.698-.158-.127-.158 1.27m-148.073 5.664c.004.859.084 1.165.178.679.093-.486.09-1.189-.008-1.563-.098-.373-.174.024-.17.884"/>
  <path d="M92.837 269.883c.183 1.555.129 2.036-.206 1.829-.25-.154.094.65.765 1.787 5.792 9.823 13.232 15.245 24.3 17.707 5.342 1.189 6.118.57 1.102-.879-11.807-3.409-19.453-9.45-24.604-19.44l-1.606-3.114.249 2.11"/>
  <path fill="#f05634" d="M252.066 274.428c-5.714 2.856-9.068 8.698-9.09 15.834-.015 4.563-2.654 7.811-6.58 8.095-3.676.266-5.732-1.288-8.681-6.56-2.554-4.566-4.221-5.859-7.554-5.859-3.745 0-4.07 2.54-.555 4.334 1.455.743 3.441 2.954 3.441 3.831 0 .261.18.363.4.227.73-.451 2.032 3.209 1.745 4.906-1.015 6.008-6.513 6.94-13.474 2.284-4.99-3.338-6.851-3.909-9.828-3.017-2.144.642-1.66 1.255 1.247 1.58 6.307.704 16.211 9.306 14.96 12.992l-.324.953-2.408-1.534c-10.41-6.629-15.951-7.183-15.951-1.593 0 3.8.372 4.081 6.812 5.158 4.572.764 5.864 1.218 7.579 2.661.395.333 1 .608 1.344.611 1.217.01 2.203 2.407 1.692 4.113-1.054 3.519-4.887 5.251-11.08 5.01l-3.419-.134.001 1.105c.002 2.993 2.937 3.989 6.413 2.177 3.65-1.903 6.523 1.09 3.866 4.026-.924 1.021-4.593 2.037-5.483 1.518-.646-.376-.64-.408.088-.471.429-.037-.412-.189-1.87-.337-2.075-.211-3.03-.537-4.395-1.499l-1.743-1.229v4.289c0 3.172.127 4.289.488 4.289.269 0 3.372-.617 6.896-1.371 5.911-1.265 18.848-3.938 21.131-4.366 6.199-1.161 10.493-2.019 17.579-3.511l12.109-2.551c4.834-1.018 4.474-.358 4.614-8.446l.122-7.03-2.247-.653c-7.865-2.286-13.096-7.388-12.528-12.217.184-1.559.059-2.079-.797-3.331-3.588-5.245-.108-13.575 7.54-18.048 3.057-1.787 3.605-2.509 3.897-5.131l.218-1.96-2.07-.081c-1.563-.062-2.568.167-4.105.936m66.098 10.217c-.644.346-2.418 1.79-3.941 3.209-6.553 6.104-12.697 6.81-20.563 2.361-1.876-1.061-3.966-1.974-4.645-2.029l-1.234-.1-.718 4.211c-2.044 11.985-8.445 20.084-18.696 23.658l-1.179.411.081 7.344c.044 4.04.139 5.725.209 3.746l.129-3.598 1.339-.251c.826-.155 1.43-.535 1.575-.991.334-1.055 1.833-1.303 4.478-.741 2.353.499 5.281.253 4.872-.41-.126-.204-.065-.371.137-.371.201 0 .58-.518.842-1.15.268-.646.845-1.222 1.317-1.314.518-.101.316-.185-.526-.219-2.517-.101-5.024-2.283-4.504-3.921.599-1.89 1.505-2.16 5.49-1.638 4.753.622 7.451.288 9.819-1.213l1.834-1.163-2.397-1.151c-3.625-1.74-5.134-4.575-3.167-5.953.76-.532.903-.494 1.787.466l.96 1.045-.876-1.261c-1.986-2.855.604-4.66 4.665-3.252 3.697 1.282 8.657 1.057 10.895-.494 2.652-1.838 5.118-1.169 5.24 1.421.055 1.182.066 1.19.221.168.12-.792.387-1.076 1.016-1.081 2.967-.022 5.495-3.236 5.218-6.634-.298-3.647.76-5.005 4.386-5.633 1.699-.295 2.381-.871 2.381-2.01 0-1.958-3.882-2.838-6.445-1.462"/>
  <path fill="#f05634" d="M244.145 301.179c.704 1.317.33 6.013-.493 6.17-.61.116-.683-.249-.683-3.414 0-3.516.341-4.315 1.176-2.756m-12.531 4.349c2.502 3.361 2.703 3.866 1.823 4.597-.641.531-1.435-.433-3.132-3.802-2.52-5-2.039-5.293 1.309-.795m6.876-.572c.689 1.968.279 3.941-.618 2.971-.745-.808-1.599-4.917-1.086-5.234.667-.413.856-.162 1.704 2.263m-11.196 6.559c.887.962 1.612 2.016 1.612 2.343 0 1.145-1.409.58-2.847-1.139-2.594-3.104-1.499-4.171 1.235-1.204m18.009 2.682c-8.057 2.845-16.006 13.373-16.006 21.198 0 1.112-.687.493-.898-.809-1.566-9.649 7.82-21.186 17.304-21.269l2.149-.019-2.549.899m32.144 13.427c.594.09 1.472.087 1.953-.005.48-.093-.005-.166-1.08-.164-1.074.003-1.467.079-.873.169m-56.863 5.396c-1.09.958-3.139 1.307-3.571.607-.239-.386 2.606-1.522 3.885-1.553.692-.016.656.092-.314.946"/>
  <path fill="#0a0e24" d="M106.055 212.118c-.215.014-1.468 1.028-2.784 2.254-13.93 12.978-19.175 33.68-13.092 51.676 1.161 3.433 2.249 5.827 2.649 5.827.4 0-.283-4.396-1.049-6.76-4.75-14.649 1.126-37.541 12.853-50.076 1.986-2.123 2.486-3.436 1.423-2.605"/>
  <path fill="#dcdcdc" d="M211.281 185.837c-.07-.651 1.123-1.14.145-1.713a108.951 108.951 0 0 1-3.304-2.002c-.853-.629-.698-.815-.017-.993.376-.099.735-.199.797-.224.197-.079 3.317 1.555 5.671 2.971 2.114 1.271 2.227 1.411 1.65 2.049-.447.492-4.289 5.951-4.942-.088Zm6.132 2.515c1.049-1.226 1.683-1.633 2.539-1.633 1.557 0 1.487.978-.128 1.791-.698.352-1.841 1.182-2.539 1.845-1.85 1.756-1.75.191.128-2.003Zm6.292 1.108c1.543-.463 1.86-.458 2.358.041.683.682.133 1.515-.999 1.515-.564 0-2.051.633-3.304 1.406-1.254.774-2.37 1.317-2.481 1.206-.675-.675 2.384-3.555 4.426-4.168Zm2.153 4.251c2.289-.79 2.797-.771 2.969.116.139.715-6.623 3.507-7.169 2.961-.417-.417 2.336-2.434 4.2-3.077Zm.026 4.873c3.677-1.394 4.053-1.472 4.4-.911.439.71-.529 1.418-3.149 2.302-4.882 1.649-5.997.41-1.251-1.391Zm2.091 4.011c1.543-.836 2.585-.819 2.42.039-.272 1.411-4.032 2.438-5.981 1.632l-1.172-.484 1.803-.289c.992-.158 2.311-.563 2.93-.898Zm3.424 22.641c.009.812-.03 1.064-.219 1.084-.969.103-1.008.055-2.565 0-3.705-.131-3.613-.025-3.629-4.175-.007-1.975-.175-5.927-.372-8.783s-.26-5.448-.14-5.761c.354-.921 4.436-.621 4.786-.555 1.344.253 1-.437 1.3 3.791l-.001.101c0 .405.024.681.061.791.061.952.127 2.075.203 3.397.223 3.895.442 7.673.526 9.109v.179c.002.406.021.688.05.822Z"/>
  <path fill="#dcdcdc" d="M215.054 184.459c1.85 1.159.213 2.381-.795 3.614l-.948 1.16-1.87-.899c-6.372-3.063-12.099-6.829-9.39-6.175.483.116 1.845-.013 3.027-.287 1.182-.275 3.025-.816 3.133-.673.038.052-.496.662-.089.923.733.469 1.958 1.214 3.304 2.002.978.573 3.073-.012 3.628.335Z"/>
  <path fill="#fff" d="M195.622 183.014c-.249-1.284.39-.017.677.351.636.816 1.207 1.743 2.07 2.314 3.953 2.618 8.301 4.603 12.276 7.188 1.412.918 5.265 4.39 6.761 5.98 1.379 1.463 1.337 1.599 1.767 3.653.184.877.863 2.198.112 2.687-.566.367-2.196-2.166-2.541-2.405-.685-.476-2.844-.984-3.48-1.236-3.218-1.275-3.384-.409-6.739-1.207-.873-.208-3.316-2.573-3.83-3.24-3.077-3.999-6.107-9.091-7.073-14.085Z"/>
  <path fill="#fff" d="M145.613 293.112c4.196-2.222 11.063-9.028 13.29-13.328 4.991-9.637 3.498-15.324-3.735-14.223-8.941 1.361-21.012-1.374-21.935-4.97-2.893-11.268-1.918-27.223 1.327-40.443 2.788-11.353 8.171-31.755 18.302-38.74 2.11-1.454 6.923-3.467 13.361-7.032 21.4-11.848 29.531-15.153 43.152-17.535a71.627 71.627 0 0 1 11.044-1.047c.691.031 1.522.03 2.202-.004 11.411.162 21.069 3.123 23.199 7.811 1.036 2.278 1.407 12.099.678 17.896-1.626 12.916-9.898 37.655-11.916 35.637-.199-.199-.925-11.518-.936-14.595-.004-1.074-.012-2.627-.018-3.451a6.193 6.193 0 0 0-.096-.972 2.202 2.202 0 0 0-.06-.362.683.683 0 0 0-.033-.102c-.109-.48-.257-.937-.419-1.261-.329-.659-.598-1.748-.598-2.419 0-1.226-.876-2.881-1.835-3.466-.283-.172-.862-.996-1.288-1.829-.901-1.767-2.132-2.739-3.468-2.739-.569 0-1.477-.546-2.275-1.368-.941-.969-1.672-1.367-2.511-1.367-.975 0-4.11-1.561-6.903-3.439-.38-.255-.128-.719 1.014-1.868.836-.841 1.611-1.792 1.722-2.115.166-.481.374-.429 1.16.293 1.505 1.381 1.884 1.131 1.884-1.244 0-3.839-1.968-6.615-4.535-6.397-1.864.158-2.656 1.266-1.52 2.127.765.579.752.617-.586 1.765-4.774 4.094-15.526 5.56-22.558 3.075-2.758-.974-2.766-.985-1.563-1.973 1.058-.869.588-2.054-.901-2.273-3.71-.546-8.181 3.684-8.181 7.74 0 1.962.506 2.002 2.368.184l1.425-1.391 2.693 1.48c1.481.814 4.083 1.848 5.782 2.298l3.09.817.186.732c.037.194.085.42.142.677a9.05 9.05 0 0 0 .97 2.48c1.678 3.039 5.375 6.131 11.456 9.616l.208.119c3.975 2.264 8.141 5.815 9.486 8.086.371.626.703 1.001.971 1.158.175.209.337.396.473.542.753.813.886 1.486 1.107 5.878-.016.175.025 1.711.087 1.634.135 2.362.307 4.532.414 5.165l.231 1.377-10.29 1.69c-5.66.93-14.07 2.284-18.689 3.01-21.07 3.313-19.828 2.975-21.125 5.755l-.112.234.048 24.576c.079 18.82.495 65.8.64 68.257.144 2.456.155 4.466.024 4.466-1.773 0-12.37-8.254-17.161-13.368-4.362-4.654-13.518-18.851-12.649-19.613.542-.476 3.578-1.652 3.747-1.652.002 0 .007.004.013.011Zm11.424 17.584a.418.418 0 0 0-.006.074c0 .286.573.859 1.004 1.114.194.115.359.165.429.095.122-.123-.049-.495-.382-.828-.577-.577-.99-.752-1.045-.455Zm9.918-33.413c.153.248.092.451-.135.451-.576 0-.519 1.065.075 1.407.268.155.362.142.209-.028-.154-.17-.11-.627.098-1.016.259-.482.235-.794-.074-.985-.28-.174-.346-.108-.173.171Zm1.404 38.183c0 .623.349.688 1.108.207.396-.251.326-.381-.293-.543-.541-.141-.815-.028-.815.336Zm-1.556 4.358c.017.856.763 1.425.769.586.003-.483-.17-.879-.384-.879-.215 0-.388.132-.385.293Z"/>
  <path fill="#fbf4d0" d="M224.037 231.76c6.995-.166 17.205-2.141 18.928-4.217 1.212-1.459-2.308-4.247-5.987-4.742-2.741-.369-3.054-1.515-.572-2.103.709-.168 1.584-.324 1.945-.346.989-.06 18.184 8.457 17.508 8.672-1.853.59-32.368 6.217-43.75 8.067-3.974.646-8.905 1.496-10.956 1.89l-3.73.716-8.966-4.374-8.965-4.373 2.344-.27c4.105-.474 29.117-4.541 33.94-5.519 5.721-1.161 5.708-1.161 5.708.004 0 .732-.304 1.047-1.342 1.389-3.502 1.156-4.45 3.472-1.88 4.594.927.404 2.506.596 4.434.62-.388.029-.466.085-.137.148a5.567 5.567 0 0 0 1.757 0c.366-.07.229-.131-.279-.156Zm12.911 54.147c0 .822.003 1.329 0 1.457-.144 7.541-2.48 7.933-5.813.904-2.675-5.641-6.336-8.581-10.686-8.58-8.088 0-10.629 8.357-3.931 12.928 3.354 2.289 4.139 3.914 2.623 5.431-1.518 1.518-3.835.792-7.227-2.264-3.364-3.032-7.273-4.062-11.621-3.064l-1.465.337v-49.217l4.395-.812c2.417-.447 9.931-1.78 16.699-2.962 6.767-1.183 16.963-3.046 22.656-4.142 5.693-1.095 12.197-2.315 14.453-2.71 2.256-.395 4.304-.735 4.551-.755.693-.056 1.066 8.701.78 18.323a740.874 740.874 0 0 0-.277 15.821c-.026 6.823-.069 7.269-.536 5.534-2.009-7.475-10.551-7.119-17.107-1.616a345.36 345.36 0 0 0-2.248 2.187c.027.014-.313.366-.516.601-1.514 1.75-2.74 3.874-3.649 6.232-.741 1.923-1.081 5.428-1.081 6.367Zm-14.47-33.437c-.296-1.181-2.326-1.286-2.933-.152-.231.431-.404 3.452-.404 7.031 0 5.823-.059 6.334-.808 7.083-1.574 1.575-1.927.519-1.927-5.763 0-3.142-.179-5.977-.404-6.398-.588-1.098-2.243-.983-2.779.193-.359.788-.551.875-1.13.513-.741-.463-6.905.727-9.598 1.852-2.867 1.198-2.173 3.944.975 3.859l1.999-.053v6.748c0 7.489.373 8.828 2.292 8.219 1.426-.452 1.676-1.914 1.572-9.196l-.098-6.836 1.183-.391c.65-.215 1.472-.632 1.827-.927.595-.493.646-.116.646 4.806 0 7.075.671 8.43 4.173 8.424 1.678-.003 3.15-.834 4.489-2.534.916-1.163 1.619-13.711.925-16.478Zm10.977 10.718c.01-.048.02-.114.031-.2.054-.433.074-1.038.061-1.601.172-4.729-.064-11.168-.685-11.914-1.587-1.909-2.782-.208-2.791 3.973l-.007 3.39-1.672-3.125c-1.763-3.294-2.54-3.836-3.981-2.778-.851.625-.972 15.959-.138 17.524 1.3 2.441 3.071.059 3.071-4.132 0-3.737.326-4.248 1.102-1.727 1.147 3.724 3.145 5.414 4.468 3.78.248-.306.427-1.529.541-3.19Zm4.379-1.225c.028-.599.011-1.268-.052-1.697-.002-1.705.287-1.497 1.098.379 2.272 5.258 3.836 4.935 4.197-.379.005-.076.074-1.734.072-1.732l.001-.106a59.77 59.77 0 0 0-.028-2.851l-.21-6.554 1.389 3.321c1.158 2.768 1.39 3.795 1.396 6.178.007 3.172.438 4.369 1.573 4.369 1.413 0 2.019-1.616 1.933-5.155-.077-3.164 1.908-10.461 2.848-10.468.161-.001.293 2.734.293 6.078 0 7.844.306 8.447 3.47 6.833 6.081-3.102 6.448-13.438.564-15.896-2.039-.852-4.034-.349-4.034 1.017 0 .939-.598 1.055-.933.18-.287-.748-1.779-.601-2.254.223-.186.322-.71 1.455-1.166 2.518l-.829 1.931-.932-1.834c-1.027-2.021-2.055-2.379-2.989-1.044-.488.698-.61.721-1.046.195-1.491-1.799-2.734-.187-2.76 3.58l-.018 2.662-1.114-2.406c-1.348-2.913-2.376-3.638-3.526-2.488-.866.865-.786 15.6.09 16.71 1.434 1.818 3.057-.18 2.967-3.564Z"/>
  <g fill="#fff">
    <path d="M149.597 273.09c-.721-.188-1.412-.29-1.908-.285-9.036.096-18.312-2.187-25.256-7.623a42.341 42.341 0 0 1-3.829-3.841 29.798 29.798 0 0 1-5.426-8.968c-3.277-8.828-1.64-16.733 2.215-25.585l.101-.23a21.783 21.783 0 0 1 3.758-4.195 21.07 21.07 0 0 1 1.152-.945c.087-.03.175-.06.265-.089.162-.052.136.124.052.348-.137.287-.373.706-.699 1.264-1.146 1.496-3.479 3.211-2.219 4.12-2.135 4.428-3.316 8.607-3.503 12.39-.083-.185-.143.213-.139.979.003.7.057 1.032.127.869.028.699.092 1.382.193 2.049 2.295 15.142 16.547 27.774 32.922 29.179 2.077.178 2.741.392 2.194.563Zm98.059-117.195c-.159-.309-1.396-1.362-1.889-1.709-3.574-2.512-8.9-5.028-13.381-5.503-14.217-1.508-20.533-.691-34.375 3.27-7.054 2.018-22.943 9.586-24.525 9.614-.217.004-.291-.065-.265-.179.365-.441 1.078-1.038 2.122-1.732 5.66-2.898 10.99-5.841 16.984-7.963 13.847-4.901 29.184-6.019 37.615-5.122 4.622.492 10.969 1.939 13.243 4.101.423.401.05-1.145-.695-3.119a17.737 17.737 0 0 0-.933-2.234c-.575-1.25-1.229-2.458-1.871-3.295-.554-.866-1.366-1.9-2.337-3.013-4.188-5.295-7.605-8.848-14.076-12.576-40.257-23.197-88.806 8.972-113.898 40.948-.052.066-.104.134-.156.203.278-.646.948-1.854 2.016-3.612 14.908-24.539 42.335-42.546 72.945-48.735 1.911-.386 3.779-.528 4.101-.608 6.875-.67 24.963 1.723 33.83 6.199 13.861 6.997 25.522 22.334 25.543 33.595l.002 1.47Zm-122.851 13.467c4.087-1.254 8.252.026 10.699 3.286l1.019 1.358-1.838-1.489c-2.047-1.658-4.649-2.595-7.208-2.595-1.831 0-1.978.18-1.097 1.344 1.668 2.206.144 5.474-2.552 5.474-4.757 0-3.982-5.858.977-7.378Zm-4.868 10.111c.259-.312.581-.564.716-.561 1.439.035 1.604 2.451.181 2.654-1.021.145-1.611-1.232-.897-2.093Zm151.99 127.59c.272-.224.54-.46.803-.708 1.566-1.482 2.954-5.2 3.957-9.431.734-2.487 1.197-5.226 1.384-8.137.274-2.602.35-4.987.181-6.745-.519-5.39-1.445-12.114-4.198-18.503-.558-1.295-2.132-4.339-3.562-6.982a132.235 132.235 0 0 0-1.832-3.296c-.84-1.61-1.082-2.487-1.082-3.56 0-2.29.503-1.896 3.624 2.838 13.677 20.747 13.738 45.024.725 54.524Z"/>
    <path d="M267.372 287.513a1.286 1.286 0 0 0-.038-.276 1.568 1.568 0 0 1 .007-.799c.122-.297.34-.632.656-1.034.062-.079.126-.153.19-.223.692-.591 1.647-.912 2.365-.638.548.287.932.922.932 1.841 0 1.859-2.405 2.952-3.683 1.674a2.435 2.435 0 0 1-.429-.545Zm4.47-6.263c.48 0 .814.252.814.615 0 .39-.36.537-.728.471a1.252 1.252 0 0 1-.469-.214.845.845 0 0 1-.241-.314c-.095-.281.1-.558.624-.558Zm-5.964 1.359c-.03.221-.033.49-.051.789-.08.365-.214.849-.406 1.44-.061.189-.124.376-.189.562-1.332 3.845-3.326 7.007-6.182 9.815-.156.153-.306.299-.451.438-.352.339-.674.636-.964.895a5.521 5.521 0 0 0-1.611 1.231c-.989.493-.118-1.162 2.694-4.491 3.236-3.83 5.663-7.33 6.372-9.188.412-1.079.689-1.546.788-1.491Zm-178.99-42.121c-.478.379-6.275 5.548-7.104 7.657-10.895 22.167-5.645 34.386 5.193 40.739.124.075.249.148.375.221a10.964 10.964 0 0 1 1.101.703c.834.648-.231.48-2.827-.537-14.762-5.785-16.395-25.406-3.823-44.647.128-.196.258-.392.389-.588 2.224-3.325 7.551-7.389 6.696-3.548Zm18.371 72.154c2.755 2.897 6.175 5.165 9.975 6.311.302.091.614.19.919.289.805.305 1.417.506 1.754.623.12.048.221.091.298.128.022.177-2.502-.137-3.557-.266-9.296-1.128-16.751-9.458-16.574-18.52l.028-1.402 1.689 4.639c1.213 3.37 3.218 6.064 5.468 8.198Z"/>
  </g>
  <g fill="#f05634">
    <path d="M191.192 270.679c.563 1.269.924 2.179.874 2.229-.07.07-3.63-1.876-7.913-4.322l-7.786-4.45-.118-2.205-.117-2.206 1.266.871a15 15 0 0 1-.13-.111l-1.053-.915-.261-8.398c-.302-9.696-.34-9.662 2.721-2.424 4.441 10.501 5.226 10.77 11.336 3.889 1.86-2.095 3.535-3.809 3.722-3.809.308 0 .798 24.422.504 25.083-.361.811-1.689-.78-3.045-3.232Zm-10.764-8.189c1.891.959 3.525 1.258 5.48 1.081 2.217-.201 2.318-.171 2.556.775.036.142.123.391.25.719a22.794 22.794 0 0 1-.151-.465l-.383-1.221-2.458.198c-1.618.129-3.521-.283-5.294-1.087Zm.798 10.7c-3.138-2.159-5.445-3.919-5.445-4.27 0-.937.567-.688 6.542 2.878 3.17 1.892 7.125 4.189 8.79 5.106 2.875 1.582 3.028 1.735 3.028 3.023v.867a.135.135 0 0 0 .086-.056c.165-.255.292 12.939.282 29.321-.01 16.381-.142 29.785-.294 29.785-.521 0-5.358-4.389-11.466-10.403l-6.118-6.025-.171-2.431c-.093-1.336-.199-13.306-.235-26.598-.035-13.292-.178-24.352-.317-24.576-.139-.225 2.105 1.194 4.986 3.153l.332.226Z"/>
    <path d="M180.015 239.156c-.715-1.513-1.347-2.9-1.774-3.918-.16-.38 13.668 6.151 14.245 6.727.062.062-1.298 1.224-3.023 2.582-1.724 1.359-3.135 2.641-3.135 2.85a.12.12 0 0 0 .021.075c0-.027.007-.061.02-.101.221-.69 5.925-5.164 6.293-4.937.473.293-1.758 2.866-5.169 5.962l-3.092 2.805-1.225-2.427c-1.639-3.247-5.651-12.029-5.998-13.129-.198-.627-.12-.879.273-.879.185 0 1.277 1.933 2.564 4.39Zm6.764 8.211c.073-.047.151-.107.233-.177.744-.639 1.393-1.039 1.595-1.005-.052-.163-.611.164-1.652 1.042a3.68 3.68 0 0 1-.176.14Zm.558.593c-.417.431-.862.858-1.225 1.166a8.74 8.74 0 0 0 1.147-1.08l.078-.086Zm-1.969 1.609c-.176-.165-.772-1.231-1.56-2.742.582 1.272.958 2.191.958 2.419 0 .367.23.46.602.323Z"/>
  </g>
  <g fill="#fcb042">
    <path d="M233.774 319.36c2.898-3.168 6.638-5.45 10.486-5.943a14.313 14.313 0 0 1 1.426-.1h.017l2.149-.019-2.549.899c-8.057 2.845-16.006 13.373-16.006 21.198 0 1.112-.687.493-.898-.809l-.002-.014c-.794-4.926 1.563-10.875 5.377-15.212Zm-12.018-4.213c.732-.158 2.995 1.43 3.419 2.4.525 1.203-.77 1.135-2.291-.12-1.818-1.501-2.099-2.07-1.128-2.28Zm3.364-5.349c.465.138 1.214.678 2.161 1.702l.026.029c.448.488.855.998 1.145 1.425.595.915.563 1.441-.122 1.494-.292-.039-.674-.235-1.1-.569a12.648 12.648 0 0 1-1.51-1.581c-.667-.86-1.019-1.534-1.11-1.971.012-.419.191-.591.51-.529Zm6.201-1.558a43.056 43.056 0 0 1-1.016-1.917c-1.255-2.491-1.766-3.814-1.548-3.958.259-.082 1.24.993 2.836 3.134l.021.029c2.502 3.361 2.703 3.866 1.823 4.597-.394.326-1.208-.467-2.116-1.885Zm5.487-3.362c-.204-1.073-.26-2.038-.022-2.185.346-.214.773.154 1.153.777.152.364.329.85.551 1.486.319.913.403 1.827.31 2.448a.793.793 0 0 1-.121.205c-.686.826-.963.462-1.749-2.295-.044-.155-.085-.3-.122-.436Zm6.275-3.53c.085-.632.219-.937.41-.929.608.233.969 1.905 1.017 3.549-.045 1.623-.373 3.289-.858 3.381-.61.116-.683-.249-.683-3.414 0-1.039.043-1.949.114-2.587Zm-23.942 20.3c0-.823 1.273-.672 2.744.325 1.606 1.088 1.917 1.855.752 1.855-1.134 0-3.496-1.473-3.496-2.18Zm-.706 5.584c2.198-.42 3.11-.296 2.975.405-.102.527-.524.683-1.852.683-1.83 0-2.653-.796-1.123-1.088Zm2.153 5.785-.004.003c-1.09.958-3.138 1.307-3.571.607-.138-.224.759-.699 1.787-1.066.247-.084.475-.157.684-.221.528-.153 1.038-.257 1.414-.266.084-.002.157-.002.22.001.244.096.073.411-.53.942Zm3.797-37.802c.539 1.109.988 2.953.807 4.021a9.924 9.924 0 0 1-.161.769 6.18 6.18 0 0 1-3.761 4.125 6.987 6.987 0 0 1-1.009.304c-2.313.231-5.266-.722-8.543-2.914-4.99-3.338-6.851-3.909-9.828-3.017a5.113 5.113 0 0 0-.185.058c-1.593.337-1.625-.084-.183-1.373 2.256-2.016 4.996-1.243 10.101 2.849 5.999 4.81 11.785 2.88 11.826-3.943.012-1.993.056-2.093.598-1.375.122.162.235.327.338.496Zm-6.419 18.245-.168.495c-.145-.017-.411-.189-.903-.515a67.735 67.735 0 0 0-4.691-2.858c-4.781-2.723-8.275-3.861-10.391-3.404-.538.051-1.01.175-1.411.375l-1.23.614.121-1.252c.095-.983.414-1.397 1.488-1.934 2.522-1.259 5.371-.225 12.4 4.5 3.248 2.183 4.783 3.448 4.785 3.943v.036Zm-2.773 5.872c.222.013.436.104.633.255.203.237.445.597.727 1.079.099.169.18.344.243.524.106.362.17.75.181 1.136-.023 1.582-1.091 3.306-2.747 4.496-1.926 1.219-4.778 1.776-8.469 1.632l-2.761-.108c-.171-.04-.266-.088-.266-.143 0-.876 1.155-1.251 3.887-1.259 6.256-.02 8.899-1.802 8.493-5.727-.107-1.037-.08-1.665.079-1.885Zm-6.07 12.094c.732-.322 1.424-.447 2.038-.418l.104.014c.576.084 1.047.246 1.417.465.875.596 1.247 1.678.76 2.878-.514 1.043-1.712 2.052-3.491 2.569-.196.057-.385.108-.565.152-.97.223-1.865.283-2.247.06l-.07-.041c.041-.197.496-.501 1.465-.862 3.962-1.478 4.744-4.585 1.16-4.608-.559-.004-.728-.048-.571-.209Zm47.805-57.904-.757-.03a12.126 12.126 0 0 0-.372-.009c-2.989-.135-5.975 1.602-8.312 4.384-2.883 3.136-4.494 7.453-4.511 12.388v.007c-.015 4.563-2.654 7.811-6.58 8.095-3.676.266-5.732-1.288-8.681-6.56l-.003-.006c-1.865-3.333-3.258-4.92-5.172-5.533-1.529-.79-2.998-.858-4.131-.071-.779.269-1.201.733-1.253 1.287-.259.229-.38.144-.513-.202-.753-1.962.868-3.678 3.476-3.678 3.368 0 5.438 1.85 8.144 7.281 2.8 5.617 5.741 7.396 9.344 5.652 2.65-1.283 3.227-2.626 3.126-7.269-.175-8.034 2.644-13.63 8.658-17.183 2.995-1.77 5.943-1.933 7.463-.413 1.233 1.233 1.282 1.799.074 1.86Zm-.288 10.297c3.813-2.037 3.566-1.421-2.451 6.105-1.84 2.301-3.461 4.551-3.604 5.002-.422 1.33-1.161.656-1.295-1.18-.263-3.627 2.471-7.32 7.35-9.927Z"/>
    <path d="M199.066 318.685c.087-.144.729-.109 1.425.076.697.186 2.914.516 4.926.735 4.264.462 5.627 1.137 5.446 2.696l-.121 1.05-4.004-.111c-4.215-.118-5.001.084-6.779 1.74l-1.018.948-.017-3.437c-.01-1.89.054-3.554.142-3.697Z"/>
  </g>
  <defs>
    <radialGradient id="d" cx="0" cy="0" r="1" gradientTransform="matrix(1.264 -131.691 134.18 1.28788 201.335 206.584)" gradientUnits="userSpaceOnUse">
      <stop offset="0" stop-color="#fd9002"/>
      <stop offset=".63" stop-color="#fb860c"/>
      <stop offset="1" stop-color="#f34e41"/>
    </radialGradient>
    <linearGradient id="e" x1="0" x2="1" y1="0" y2="0" gradientTransform="rotate(-86.025 254.4 -26.44) scale(68.4975)" gradientUnits="userSpaceOnUse">
      <stop offset="0" stop-color="#f05634"/>
      <stop offset="1" stop-color="#ffd006"/>
    </linearGradient>
  </defs>
</svg>
